<svg width="312" height="100" viewBox="0 0 312 100" fill="none" xmlns="http://www.w3.org/2000/svg">
  <defs>
    <linearGradient id="bookFillDark" x1="18" y1="28" x2="82" y2="78" gradientUnits="userSpaceOnUse">
      <stop stop-color="#0F172A"/>
      <stop offset="1" stop-color="#1E293B"/>
    </linearGradient>
    <linearGradient id="featherFillDark" x1="46" y1="70" x2="80" y2="22" gradientUnits="userSpaceOnUse">
      <stop stop-color="#93C5FD"/>
      <stop offset="1" stop-color="#2563EB"/>
    </linearGradient>
    <linearGradient id="writeGradientDark" x1="160" y1="24" x2="300" y2="64" gradientUnits="userSpaceOnUse">
      <stop stop-color="#BFDBFE"/>
      <stop offset="1" stop-color="#60A5FA"/>
    </linearGradient>
    <filter id="shadowDark" x="10" y="18" width="80" height="66" filterUnits="userSpaceOnUse">
      <feDropShadow dx="0" dy="2" stdDeviation="3" flood-color="#0F172A" flood-opacity="0.45"/>
    </filter>
  </defs>
  <g>
    <g filter="url(#shadowDark)">
      <path d="M20 36C20 28 32 25 50 34C68 25 80 28 80 36V70C80 78 68 81 50 72C32 81 20 78 20 70V36Z" fill="url(#bookFillDark)" stroke="#60A5FA" stroke-width="2.2" stroke-linejoin="round"/>
      <path d="M50 34V72" stroke="#93C5FD" stroke-width="1.8" stroke-linecap="round"/>
      <path d="M25 42C31 39 38 39 47 43" stroke="#93C5FD" stroke-width="1.3" stroke-linecap="round" opacity="0.9"/>
      <path d="M25 49C32 46 39 46 47 50" stroke="#93C5FD" stroke-width="1.3" stroke-linecap="round" opacity="0.7"/>
      <path d="M25 56C31 53 38 53 46 57" stroke="#93C5FD" stroke-width="1.3" stroke-linecap="round" opacity="0.5"/>
      <path d="M25 63C32 60 39 60 45 64" stroke="#93C5FD" stroke-width="1.3" stroke-linecap="round" opacity="0.35"/>
      <path d="M53 43C62 39 69 39 75 42" stroke="#93C5FD" stroke-width="1.3" stroke-linecap="round" opacity="0.9"/>
      <path d="M53 50C61 46 68 46 75 49" stroke="#93C5FD" stroke-width="1.3" stroke-linecap="round" opacity="0.7"/>
      <path d="M54 57C62 53 69 53 75 56" stroke="#93C5FD" stroke-width="1.3" stroke-linecap="round" opacity="0.5"/>
      <path d="M55 64C63 60 70 60 75 63" stroke="#93C5FD" stroke-width="1.3" stroke-linecap="round" opacity="0.35"/>
    </g>
    <g transform="translate(-10 0) rotate(7 55 50)">
      <path d="M44 71 C47 66, 50 58, 55 48 C61 36, 71 26, 81 22 C79 30, 73 40, 65 49 C60 55, 57 60, 55 64 Q52 69, 44 71 Z" fill="url(#featherFillDark)"/>
      <path d="M48 67C53 59 60 47 71 33" stroke="#E0F2FE" stroke-width="1.4" stroke-linecap="round" opacity="0.95"/>
    </g>
  </g>
  <text x="95" y="62" fill="#F8FAFC" font-family="Georgia, Times New Roman, serif" font-size="38" font-weight="700" letter-spacing="-1">Open</text>
  <text x="192" y="62" fill="url(#writeGradientDark)" font-family="Georgia, Times New Roman, serif" font-size="38" font-weight="700" letter-spacing="-1">Write</text>
  <path d="M194 70C212 68 230 68 248 70C266 72 284 72 302 70" stroke="#60A5FA" stroke-width="3" stroke-linecap="round" opacity="0.9"/>
</svg>
